#!OML:ASF X:\für Bonn\!DataBase\2005_08_11_Bastian_Final\c3d\Bastian.ASF
:FULLY-SPECIFIED
:DEGREES
181
root -2.71989 16.2934 -16.382 163.597 15.3279 -180.708
lowerback 7.20416 -4.56954 -2.50623
upperback 9.20463 -5.25059 -1.1147
thorax 5.71718 -2.34914 0.3708
lowerneck -3.17048 0.927567 -9.85039
upperneck -3.26846 1.69213 5.53235
head -0.631881 0.975574 3.55594
rclavicle 4.65156e-014 -1.05356e-014
rhumerus -49.2658 15.7961 -101.918
rradius 112.227
rwrist 7.44551
rhand -17.9531 15.5324
rfingers 7.12502
rthumb 8.31564 -14.284
lclavicle 4.65156e-014 -1.05356e-014
lhumerus -20.675 -40.6173 96.5973
lradius 119.726
lwrist 38.1659
lhand -9.91516 -19.1681
lfingers 7.12502
lthumb 16.0653 10.1859
rfemur 8.60509 10.6051 18.8725
rtibia 52.6376
rfoot -206.566 -188.059
rtoes -5.94847
lfemur 0.718826 10.5331 -8.74516
ltibia 54.5898
lfoot -23.584 8.15913
ltoes -37.5303
182
root -2.78789 16.2492 -16.4386 163.612 14.5654 -180.856
lowerback 7.63935 -4.61014 -2.91794
upperback 9.18464 -5.30627 -1.22543
thorax 5.48826 -2.38781 0.516139
lowerneck -3.03535 0.724578 -9.7289
upperneck -3.58132 1.42411 5.79972
head -0.735391 0.846027 3.62488
rclavicle -5.45415e-015 8.74653e-015
rhumerus -48.3751 16.4971 -102.457
rradius 112.471
rwrist 7.40557
rhand -18.5111 16.1522
rfingers 7.12502
rthumb 7.77708 -13.6848
lclavicle -5.45415e-015 8.74653e-015
lhumerus -19.8479 -41.2873 96.2152
lradius 119.262
lwrist 38.2236
lhand -9.96295 -19.192
lfingers 7.12502
lthumb 16.0193 10.1657
rfemur 7.41031 10.1629 18.4581
rtibia 55.1491
rfoot -205.169 -189.14
rtoes -6.01218
lfemur 0.823477 11.3962 -8.75554
ltibia 54.5201
lfoot -24.2756 6.85356
ltoes -37.0767
183
root -2.85003 16.2108 -16.4964 163.621 13.7825 -181.014
lowerback 8.044 -4.64654 -3.38888
upperback 9.22876 -5.34884 -1.35172
thorax 5.35229 -2.41833 0.672591
lowerneck -3.04532 0.499697 -9.445
upperneck -3.85131 1.13849 5.99409
head -0.795145 0.707399 3.63741
rclavicle 7.43827e-014 -8.24956e-015
rhumerus -47.336 17.2848 -102.98
rradius 112.665
rwrist 7.42609
rhand -19.0913 16.7349
rfingers 7.12502
rthumb 7.21699 -13.122
lclavicle 7.43827e-014 -8.24956e-015
lhumerus -18.9441 -41.9726 95.6949
lradius 118.863
lwrist 38.2553
lhand -10.0835 -19.1482
lfingers 7.12502
lthumb 15.9033 10.2188
rfemur 6.09613 9.6593 18.0603
rtibia 57.8475
rfoot -203.409 -190.287
rtoes -6.91219
lfemur 0.943165 12.3525 -8.6793
ltibia 54.4282
lfoot -24.7893 5.38651
ltoes -36.5548
184
root -2.90868 16.1811 -16.5559 163.603 12.9764 -181.184
lowerback 8.48688 -4.68356 -3.88092
upperback 9.30309 -5.38956 -1.48462
thorax 5.23165 -2.44515 0.835308
lowerneck -3.11544 0.276735 -9.16072
upperneck -4.13049 0.865493 6.20241
head -0.848552 0.576456 3.65509
rclavicle 4.28878e-014 9.54166e-015
rhumerus -46.2897 18.1776 -103.43
rradius 112.848
rwrist 7.56646
rhand -19.6835 17.3284
rfingers 7.12502
rthumb 6.64539 -12.5474
lclavicle 4.28878e-014 9.54166e-015
lhumerus -18.0214 -42.6827 95.105
lradius 118.534
lwrist 38.3994
lhand -10.2561 -19.1621
lfingers 7.12502
lthumb 15.737 10.2181
rfemur 4.66412 9.05134 17.6385
rtibia 60.6661
rfoot -201.386 -191.334
rtoes -7.11944
lfemur 1.11673 13.2915 -8.57751
ltibia 54.272
lfoot -25.1935 3.791
ltoes -35.7473
185
root -2.96741 16.1586 -16.6182 163.538 12.1215 -181.357
lowerback 9.0195 -4.73914 -4.3496
upperback 9.38028 -5.45699 -1.62214
thorax 5.06527 -2.48017 0.988244
lowerneck -3.22889 0.0419378 -8.92817
upperneck -4.37847 0.583269 6.43499
head -0.884027 0.441631 3.69142
rclavicle 7.67557e-014 -1.11319e-014
rhumerus -45.2722 19.1451 -103.833
rradius 113.016
rwrist 7.82772
rhand -20.3617 17.7958
rfingers 7.12502
rthumb 5.99059 -12.0995
lclavicle 7.67557e-014 -1.11319e-014
lhumerus -17.2982 -43.2034 94.7547
lradius 118.129
lwrist 38.4357
lhand -10.3233 -19.3338
lfingers 7.12502
lthumb 15.6722 10.0514
rfemur 3.15556 8.2924 17.1715
rtibia 63.5406
rfoot -199.116 -192.283
rtoes -6.42678
lfemur 1.3731 14.1469 -8.50301
ltibia 54.0453
lfoot -25.4883 2.24076
ltoes -35.1029
186
root -3.0257 16.1421 -16.6817 163.421 11.2521 -181.559
lowerback 9.63471 -4.78706 -4.80418
upperback 9.4644 -5.51501 -1.78778
thorax 4.85884 -2.50413 1.11061
lowerneck -3.41992 -0.196773 -8.71838
upperneck -4.56285 0.303074 6.70364
head -0.88546 0.308461 3.74449
rclavicle -2.06736e-014 1.27222e-014
rhumerus -44.2561 20.0226 -104.152
rradius 113.123
rwrist 8.2108
rhand -20.9712 18.3171
rfingers 7.12502
rthumb 5.40219 -11.5941
lclavicle -2.06736e-014 1.27222e-014
lhumerus -16.6163 -43.718 94.4368
lradius 117.765
lwrist 38.4692
lhand -10.4003 -19.5183
lfingers 7.12502
lthumb 15.5981 9.87275
rfemur 1.64592 7.43163 16.6681
rtibia 66.4148
rfoot -196.793 -193.215
rtoes -4.83728
lfemur 1.70305 14.8266 -8.52055
ltibia 53.7608
lfoot -25.7688 0.798371
ltoes -34.2075
187
root -3.08322 16.1283 -16.7465 163.318 10.3504 -181.751
lowerback 10.2642 -4.84277 -5.25022
upperback 9.53621 -5.59144 -1.91999
thorax 4.63795 -2.53672 1.26564
lowerneck -3.63039 -0.43662 -8.62036
upperneck -4.73264 0.0266039 6.99463
head -0.879227 0.179259 3.82714
rclavicle 1.27222e-014 5.40694e-014
rhumerus -43.2733 20.8779 -104.342
rradius 113.229
rwrist 8.55537
rhand -21.4906 18.8021
rfingers 7.12502
rthumb 4.9006 -11.1212
lclavicle 1.27222e-014 5.40694e-014
lhumerus -15.9589 -44.2589 94.2044
lradius 117.449
lwrist 38.4941
lhand -10.6333 -19.7183
lfingers 7.12502
lthumb 15.3737 9.69009
rfemur 0.122143 6.40193 16.157
rtibia 69.2302
rfoot -194.918 -194.115
rtoes -3.12646
lfemur 2.02251 15.3067 -8.61321
ltibia 53.4433
lfoot -26.0171 -0.58073
ltoes -32.946
188
root -3.13999 16.1133 -16.8089 163.228 9.42923 -181.893
lowerback 10.9004 -4.9092 -5.60424
upperback 9.62405 -5.67625 -2.06699
thorax 4.42176 -2.56487 1.35616
lowerneck -3.91718 -0.695227 -8.47441
upperneck -4.84209 -0.272056 7.28343
head -0.837095 0.0394828 3.89834
rclavicle 3.11098e-014 1.31198e-014
rhumerus -42.2639 21.7255 -104.486
rradius 113.313
rwrist 8.99826
rhand -22.1338 19.1037
rfingers 7.12502
rthumb 4.27961 -10.8331
lclavicle 3.11098e-014 1.31198e-014
lhumerus -15.2977 -44.8478 93.9259
lradius 117.19
lwrist 38.6081
lhand -10.9202 -19.9749
lfingers 7.12502
lthumb 15.0974 9.45456
rfemur -1.3945 5.2944 15.7076
rtibia 71.9289
rfoot -193.629 -194.932
rtoes -0.756464
lfemur 2.31417 15.4315 -8.81925
ltibia 53.1045
lfoot -26.1953 -1.7316
ltoes -31.4813
189
root -3.19243 16.1098 -16.8744 163.195 8.49392 -182.092
lowerback 11.4615 -4.95297 -5.99897
upperback 9.6938 -5.73789 -2.21176
thorax 4.23314 -2.58466 1.46508
lowerneck -4.22066 -0.97441 -8.38158
upperneck -4.94613 -0.595088 7.58121
head -0.787458 -0.110517 3.98225
rclavicle 5.14355e-014 1.82882e-014
rhumerus -41.3005 22.5112 -104.535
rradius 113.459
rwrist 9.3696
rhand -22.7309 19.366
rfingers 7.12502
rthumb 3.70301 -10.5816
lclavicle 5.14355e-014 1.82882e-014
lhumerus -14.6253 -45.4836 93.6757
lradius 116.963
lwrist 38.7348
lhand -11.2956 -20.2393
lfingers 7.12502
lthumb 14.7357 9.21697
rfemur -2.91269 4.15079 15.185
rtibia 74.4205
rfoot -192.695 -195.545
rtoes 2.81069
lfemur 2.552 15.3394 -9.19525
ltibia 52.7387
lfoot -26.1905 -2.79286
ltoes -29.6408
190
root -3.24206 16.1217 -16.9422 163.219 7.54034 -182.24
lowerback 11.958 -4.99885 -6.27342
upperback 9.77089 -5.79186 -2.36726
thorax 4.07252 -2.59349 1.492
lowerneck -4.5257 -1.26663 -8.26252
upperneck -5.05976 -0.934362 7.88996
head -0.738354 -0.267719 4.06385
rclavicle -5.79954e-014 -2.26615e-014
rhumerus -40.2955 23.2583 -104.51
rradius 113.576
rwrist 9.69251
rhand -23.4072 19.4674
rfingers 7.12502
rthumb 3.0499 -10.4905
lclavicle -5.79954e-014 -2.26615e-014
lhumerus -14.0089 -46.1705 93.4584
lradius 116.771
lwrist 38.87
lhand -11.6704 -20.5277
lfingers 7.12502
lthumb 14.3746 8.95458
rfemur -4.39781 3.0015 14.7628
rtibia 76.6537
rfoot -192.157 -196.014
rtoes 6.28878
lfemur 2.76803 15.0631 -9.61383
ltibia 52.3127
lfoot -26.1031 -3.71403
ltoes -27.8256
191
root -3.28773 16.1398 -17.0092 163.304 6.58686 -182.311
lowerback 12.4121 -5.05674 -6.46385
upperback 9.83705 -5.86058 -2.48259
thorax 3.91895 -2.60834 1.51341
lowerneck -4.87208 -1.57244 -8.24992
upperneck -5.12041 -1.28766 8.2363
head -0.661694 -0.429404 4.17861
rclavicle 3.72721e-014 5.725e-014
rhumerus -39.284 23.9815 -104.432
rradius 113.658
rwrist 9.93457
rhand -23.9578 19.5353
rfingers 7.12502
rthumb 2.51815 -10.4296
lclavicle 3.72721e-014 5.725e-014
lhumerus -13.4178 -46.7659 93.3186
lradius 116.556
lwrist 39.0034
lhand -11.9796 -20.7849
lfingers 7.12502
lthumb 14.0766 8.71836
rfemur -5.88057 1.78753 14.468
rtibia 78.6349
rfoot -192.031 -196.295
rtoes 8.93231
lfemur 2.96962 14.6829 -9.98427
ltibia 51.8174
lfoot -25.9991 -4.58184
ltoes -25.7875
192
root -3.32851 16.1642 -17.0777 163.413 5.60736 -182.433
lowerback 12.8221 -5.10124 -6.65472
upperback 9.88635 -5.912 -2.63432
thorax 3.7665 -2.61322 1.49374
lowerneck -5.11537 -1.88872 -8.20435
upperneck -5.23703 -1.6614 8.56786
head -0.618582 -0.602807 4.28133
rclavicle 8.34896e-015 -3.26007e-014
rhumerus -38.3315 24.6477 -104.343
rradius 113.807
rwrist 10.1048
rhand -24.4964 19.4138
rfingers 7.12502
rthumb 1.99792 -10.5565
lclavicle 8.34896e-015 -3.26007e-014
lhumerus -12.9174 -47.3821 93.2511
lradius 116.299
lwrist 39.0941
lhand -12.2586 -21.1026
lfingers 7.12502
lthumb 13.8078 8.41919
rfemur -7.35306 0.571868 14.1794
rtibia 80.4
rfoot -192.46 -196.157
rtoes 11.7545
lfemur 3.19855 14.2296 -10.4512
ltibia 51.2268
lfoot -25.9137 -5.30366
ltoes -24.0007
193
root -3.36302 16.1961 -17.1484 163.577 4.6237 -182.498
lowerback 13.1625 -5.14491 -6.81818
upperback 9.93654 -5.96007 -2.74508
thorax 3.65384 -2.61883 1.49586
lowerneck -5.40409 -2.20804 -8.17941
upperneck -5.27625 -2.04106 8.90738
head -0.5399 -0.778308 4.38913
rclavicle -3.1408e-014 -3.10104e-014
rhumerus -37.3807 25.3025 -104.164
rradius 113.936
rwrist 10.1417
rhand -24.9814 19.2409
rfingers 7.12502
rthumb 1.52956 -10.7333
lclavicle -3.1408e-014 -3.10104e-014
lhumerus -12.4912 -47.9161 93.2783
lradius 116.045
lwrist 39.1325
lhand -12.4469 -21.301
lfingers 7.12502
lthumb 13.6263 8.23302
rfemur -8.85752 -0.652363 14.0409
rtibia 81.9783
rfoot -193.109 -195.495
rtoes 14.6888
lfemur 3.41816 13.7361 -10.8644
ltibia 50.5565
lfoot -25.7778 -5.88665
ltoes -22.5002
194
root -3.3922 16.2328 -17.2223 163.733 3.61587 -182.545
lowerback 13.5035 -5.17707 -6.98245
upperback 9.97446 -5.99738 -2.82578
thorax 3.53081 -2.62037 1.52957
lowerneck -5.58056 -2.52731 -8.14254
upperneck -5.37811 -2.42809 9.19743
head -0.500394 -0.95973 4.47708
rclavicle -6.06293e-015 -1.19271e-014
rhumerus -36.5415 25.8575 -103.945
rradius 114.107
rwrist 10.1736
rhand -25.3484 18.9853
rfingers 7.12502
rthumb 1.17509 -10.9912
lclavicle -6.06293e-015 -1.19271e-014
lhumerus -12.1354 -48.4168 93.4278
lradius 115.736
lwrist 39.1738
lhand -12.5952 -21.4312
lfingers 7.12502
lthumb 13.4833 8.11236
rfemur -10.3262 -1.85348 14.0002
rtibia 83.3824
rfoot -193.761 -194.389
rtoes 17.0286
lfemur 3.68438 13.2208 -11.2568
ltibia 49.7974
lfoot -25.6207 -6.27345
ltoes -21.8325
195
root -3.41853 16.2739 -17.299 163.913 2.61159 -182.554
lowerback 13.8056 -5.21318 -7.10435
upperback 9.99804 -6.04052 -2.88582
thorax 3.41045 -2.62549 1.56006
lowerneck -5.70502 -2.83685 -8.08427
upperneck -5.46326 -2.81058 9.46946
head -0.46466 -1.14122 4.55388
rclavicle 4.65156e-014 -1.19271e-014
rhumerus -35.822 26.4156 -103.679
rradius 114.289
rwrist 10.0739
rhand -25.6452 18.6941
rfingers 7.12502
rthumb 0.88843 -11.2838
lclavicle 4.65156e-014 -1.19271e-014
lhumerus -11.925 -48.8497 93.7186
lradius 115.386
lwrist 39.1667
lhand -12.6751 -21.5596
lfingers 7.12502
lthumb 13.4064 7.989
rfemur -11.811 -2.96749 14.098
rtibia 84.6043
rfoot -194.343 -193.069
rtoes 17.3981
lfemur 3.97577 12.6545 -11.6275
ltibia 48.9739
lfoot -25.473 -6.50953
ltoes -21.6424
